<?xml version="1.0" encoding="UTF-8"?>
<!DOCTYPE svg PUBLIC "-//W3C//DTD SVG 1.1//EN" "http://www.w3.org/Graphics/SVG/1.1/DTD/svg11.dtd">
<!-- Creator: CorelDRAW 2019 (64-Bit) -->
<svg xmlns="http://www.w3.org/2000/svg" xml:space="preserve" width="183.066mm" height="73.7852mm" version="1.1" style="shape-rendering:geometricPrecision; text-rendering:geometricPrecision; image-rendering:optimizeQuality; fill-rule:evenodd; clip-rule:evenodd"
viewBox="0 0 182.7731 73.6673"
 xmlns:xlink="http://www.w3.org/1999/xlink"
 xmlns:xodm="http://www.corel.com/coreldraw/odm/2003">
 <defs>
  <style type="text/css">
   <![CDATA[
    .fil0 {fill:#290A04}
   ]]>
  </style>
 </defs>
 <g id="Layer_x0020_1">
  <metadata id="CorelCorpID_0Corel-Layer"/>
  <path class="fil0" d="M16.4983 36.5235c0.1716,0.2123 0.2143,0.5016 0.1106,0.7544l0 34.727c-0.0164,0.5896 -0.4903,1.0634 -1.0804,1.0798l-3.0674 0c-0.5902,-0.0133 -1.0639,-0.4897 -1.0739,-1.0798l0 -14.2343c-0.0026,-0.293 -0.1354,-0.5691 -0.3618,-0.755 -0.2133,-0.2047 -0.4957,-0.3208 -0.7912,-0.3253l-3.6815 0c-0.2718,0.0149 -0.5279,0.131 -0.7179,0.3253 -0.2249,0.1864 -0.3553,0.463 -0.3559,0.755l0 14.2343c-0.0158,0.5896 -0.4902,1.0634 -1.0797,1.0798l-3.3195 0c-0.2718,-0.0149 -0.5276,-0.1308 -0.718,-0.3253 -0.2265,-0.1853 -0.359,-0.462 -0.3618,-0.7545l0 -34.727c0.0193,-0.2781 0.1498,-0.5367 0.3618,-0.7177 0.18,-0.2147 0.4389,-0.3475 0.718,-0.3683l3.3069 0c0.2932,0.0029 0.5694,0.1358 0.7548,0.3623 0.1948,0.1899 0.3108,0.4461 0.325,0.7179l0 13.0315c0.0169,0.2772 0.1454,0.5364 0.3561,0.7179 0.181,0.2122 0.4396,0.3427 0.7179,0.3619l3.6814 0c0.3024,-0.0075 0.5885,-0.1383 0.791,-0.3619 0.2078,-0.1829 0.3338,-0.4417 0.3501,-0.7179l0 -13.0258c0.0059,-0.2676 0.1104,-0.5234 0.2944,-0.7177 0.1899,-0.2354 0.4769,-0.3714 0.7793,-0.3683l3.3072 0c0.29,-0.0184 0.5716,0.105 0.7544,0.3316zm22.0874 34.4011l0 0c1.4372,-1.9022 2.1973,-4.2301 2.1601,-6.6137l0 -18.977c0.1106,-2.4238 -0.6272,-4.8107 -2.0862,-6.7492 -1.5968,-1.8494 -3.959,-2.8573 -6.3992,-2.7298 -2.4276,-0.129 -4.7707,0.9081 -6.3073,2.7914 -1.4118,1.9359 -2.1257,4.2936 -2.0247,6.6876l0 18.8358c-0.111,2.4238 0.6267,4.8107 2.0856,6.7492 1.5601,1.8574 3.9041,2.8713 6.3258,2.7364 2.4045,0.1314 4.7295,-0.8809 6.2706,-2.7306l-0.0248 0zm-3.5218 -6.9695l0 0c0.0814,1.0638 -0.1442,2.1282 -0.6499,3.0676 -0.5483,0.6742 -1.4004,1.0253 -2.2641,0.9325 -0.864,0.0928 -1.7162,-0.2583 -2.2641,-0.9325 -0.5002,-0.9409 -0.7237,-2.0048 -0.6445,-3.0676l0 -18.6212c-0.0779,-1.0629 0.1459,-2.1263 0.6445,-3.0678 0.5348,-0.695 1.3921,-1.0618 2.2641,-0.9696 0.8715,-0.0922 1.7291,0.2747 2.2641,0.9696 0.5037,0.94 0.7298,2.0038 0.6499,3.0678l0 18.6212zm13.7193 8.8043l0 0c-0.2108,-0.1899 -0.2815,-0.4907 -0.178,-0.7545l0 -34.727c0.0125,-0.2721 0.1284,-0.5289 0.3253,-0.7177 0.1869,-0.232 0.4689,-0.3673 0.7669,-0.3683l3.307 0c0.2926,0.0029 0.5693,0.1358 0.7547,0.3623 0.1927,0.1904 0.3064,0.4467 0.3193,0.7179l0 29.2658c0.0049,0.2925 0.1372,0.5677 0.3618,0.755 0.1909,0.1924 0.4467,0.3064 0.7178,0.3188l6.3992 0c0.3024,0.0075 0.5886,0.1384 0.7916,0.3619 0.2124,0.1809 0.3427,0.4397 0.362,0.7179l0 3.307c-0.003,0.2931 -0.1354,0.5693 -0.362,0.7552 -0.2131,0.2047 -0.4961,0.3207 -0.7916,0.3251l-12.0193 0c-0.2845,0.0016 -0.5579,-0.1139 -0.7546,-0.3193zm7.2274 -51.3724l0 0c2.0406,0.1977 4.0954,0.1977 6.1355,0 1.0162,-0.1131 2.0092,-0.3804 2.9451,-0.7913 0.9405,-0.3683 1.8552,-0.801 2.7366,-1.2948l1.2269 -0.6132 6.9762 4.3868c-0.2608,0.1815 -0.5378,0.3377 -0.8285,0.466 -0.2678,0.1131 -0.521,0.2574 -0.7545,0.4299 -0.3148,0.2156 -0.6524,0.3966 -1.0064,0.5398 -0.4963,0.4988 -0.9306,1.0545 -1.2945,1.6563l-0.1778 0.2086c0,0.0924 -0.1165,0.2148 -0.356,0.356 -0.1701,0.1215 -0.3688,0.1979 -0.5766,0.221l-0.4296 0.2821c-0.7671,0.5766 -1.1532,0.9633 -1.1532,1.1537 -0.0942,0.4292 -0.0577,0.7178 0.11,0.865 0.3004,0.1548 0.6509,0.1795 0.9696,0.0674 0.6708,-0.2374 1.4619,-0.4764 2.3741,-0.7178l1.0803 -0.2147 3.6808 1.0797 1.1538 0.2885c1.0142,0.1974 2.0384,0.3406 3.0677,0.4293 1.5531,0.1413 3.116,0.1413 4.6693,0 0.3882,0 2.5215,-0.4319 6.399,-1.2944l5.6817 -1.2273c4.2659,1.1986 6.6387,1.9164 7.1169,2.1534 0.8548,0.2003 1.7461,0.1771 2.5895,-0.0674 1.0634,-0.1591 2.0968,-0.4753 3.0676,-0.9383 1.0878,-0.7239 2.0375,-1.6361 2.8039,-2.694 0.7675,-0.761 1.3563,-1.6831 1.7242,-2.6994 0,-0.3802 -2.4546,-0.8591 -7.3628,-1.4356l-1.3683 -0.2147c-1.1001,-0.0491 -2.6096,-0.0982 -4.5281,-0.1474l-2.6626 0c0.7734,-1.8654 1.6606,-3.8776 2.6626,-6.0376 1.2873,-3.0646 2.9793,-5.9435 5.0312,-8.559 1.7227,-1.3206 3.8833,-1.9369 6.0436,-1.7236 1.8773,-0.0616 4.894,0.053 9.0498,0.3435l4.8097 0.288c1.1321,0.0818 2.2692,0.0075 3.3809,-0.2205 1.3378,-0.3803 1.2882,-0.8835 -0.1472,-1.5097 -1.8554,-0.7201 -3.7554,-1.3211 -5.6876,-1.7975 -1.9997,-0.5706 -3.4113,-1.0063 -4.2271,-1.2944 -1.2539,-0.3202 -2.5263,-0.5601 -3.8105,-0.7178 -0.9141,-0.0923 -2.2268,-0.2147 -3.9569,-0.356l-0.4298 0c-1.6391,-0.0867 -3.2828,-0.0148 -4.9085,0.2148l-1.8407 0.1413c-1.3867,0.098 -4.3333,2.2805 -8.8411,6.5463 -3.9347,3.7384 -7.9843,8.0048 -12.148,12.7987 -3.1908,-2.4193 -6.5039,-4.672 -9.9275,-6.7492 -1.4847,-0.865 -2.5401,-1.4357 -3.1598,-1.7241 -0.7124,-0.3098 -1.4881,-0.4468 -2.2636,-0.3987 -0.8114,0.1483 -1.5691,0.5082 -2.1966,1.0431 -2.5388,1.5016 -5.1539,2.8698 -7.8353,4.0982 -3.1168,1.5339 -5.2501,2.6142 -6.3991,3.2397 -1.8695,1.0064 -2.6115,1.5562 -2.2274,1.6504 1.6603,0.2747 3.3368,0.4387 5.0189,0.4909zm25.5235 51.3724l0 0c-0.1359,0.1869 -0.346,0.3055 -0.5767,0.3253l-12.0742 0c-0.2861,0 -0.5589,-0.1175 -0.7552,-0.3253 -0.2102,-0.1943 -0.3281,-0.4685 -0.3251,-0.7545l0 -34.727c0.006,-0.2687 0.1133,-0.5253 0.3008,-0.7177 0.1854,-0.2265 0.4616,-0.3594 0.7546,-0.3618l3.3072 0c0.5575,0.0812 0.9949,0.5215 1.0737,1.0795l0 29.2665c0.0019,0.285 0.1189,0.5571 0.3252,0.7545 0.1964,0.2062 0.4693,0.3217 0.7547,0.3193l6.4238 0c0.2923,0.0024 0.569,0.1353 0.7544,0.3618 0.1943,0.1899 0.3108,0.4463 0.3253,0.718l0 3.307c0.0025,0.2787 -0.1001,0.5484 -0.2885,0.7545zm11.8661 0l0 0c-0.2134,0.2049 -0.4957,0.3214 -0.7913,0.3253l-3.2395 0c-0.2934,-0.0049 -0.5741,-0.1215 -0.7853,-0.3253 -0.2284,-0.1839 -0.3618,-0.4614 -0.3618,-0.7545l0 -34.727c0.0164,-0.2791 0.1471,-0.5387 0.3618,-0.7177 0.2013,-0.2231 0.4848,-0.3539 0.7853,-0.3618l3.2395 0c0.302,0.0069 0.5881,0.1377 0.7913,0.3618 0.2107,0.1814 0.339,0.4401 0.3558,0.7177l0 34.727c-0.0005,0.292 -0.1307,0.5687 -0.3558,0.7545zm14.3082 -24.051l0 0c0.9944,1.2265 2.0753,2.3806 3.2333,3.4544 1.0647,0.9954 2.0727,2.0504 3.0185,3.1598 1.0108,1.1498 1.8576,2.4336 2.5154,3.8162 0.6698,1.517 1.013,3.1579 1.0065,4.8163 0.1739,2.5625 -0.6629,5.0914 -2.3316,7.0435 -1.6548,1.6741 -3.9436,2.5664 -6.2949,2.4539 -2.0777,0.0332 -4.0681,-0.8324 -5.4607,-2.3741 -1.3917,-1.7093 -2.266,-3.7805 -2.522,-5.9697 -0.1001,-0.3778 -0.0872,-0.7769 0.0373,-1.1477 0.0838,-0.2063 0.2543,-0.3654 0.4659,-0.4352l3.0677 -0.6137c0.3242,-0.0884 0.6707,0.0084 0.9023,0.2512 0.2792,0.2123 0.4918,0.4998 0.6132,0.8285l0.1474 1.0739c0.1595,0.6984 0.4535,1.3588 0.8656,1.9448 0.5601,0.6652 1.3944,1.036 2.2634,1.0062 0.835,0.0367 1.65,-0.2612 2.2641,-0.8283 0.6133,-0.6637 0.9242,-1.5521 0.8592,-2.454 -0.0381,-1.5056 -0.5393,-2.9622 -1.4358,-4.1722 -1.0307,-1.2626 -2.1351,-2.4628 -3.307,-3.5956 -1.0723,-0.9553 -2.0807,-1.9799 -3.0185,-3.0677 -0.995,-1.1472 -1.8216,-2.4295 -2.4545,-3.8097 -0.6337,-1.6014 -0.9501,-3.3096 -0.9326,-5.0314 -0.1576,-2.4464 0.6261,-4.8612 2.1908,-6.7491 1.6369,-1.6462 3.9036,-2.5093 6.221,-2.368 1.3193,-0.0283 2.6115,0.3747 3.6814,1.1471 0.919,0.6936 1.6792,1.5765 2.2268,2.5894 0.4056,0.8259 0.7185,1.6944 0.933,2.5892l0.288 1.1472c0.0941,0.3262 0.0565,0.6767 -0.104,0.9757 -0.0977,0.3023 -0.3703,0.514 -0.6871,0.5339l-2.8713 0.3617c-0.2474,0.012 -0.4908,-0.0644 -0.6871,-0.2146 -0.1573,-0.1294 -0.2692,-0.3058 -0.3193,-0.5032l-0.074 -0.2146c-0.0336,-0.9292 -0.4517,-1.8022 -1.1531,-2.4113 -0.5866,-0.5266 -1.3712,-0.775 -2.1536,-0.6813 -1.583,0.1394 -2.3747,1.4094 -2.3747,3.8104 0.064,1.3282 0.5474,2.6016 1.3808,3.6383zm29.7268 -12.1482l0 0c0.1816,0.1914 0.2373,0.4713 0.1409,0.7177l0 3.3072c-0.0165,0.5895 -0.4898,1.0639 -1.0799,1.0798l-3.0675 0c-0.2919,0.0005 -0.5685,0.1308 -0.7551,0.3558 -0.2045,0.2133 -0.3212,0.4958 -0.3249,0.7913l0 29.1929c-0.0013,0.292 -0.1308,0.5687 -0.3567,0.7545 -0.2133,0.2049 -0.4948,0.3214 -0.7905,0.3253l-3.2338 0c-0.2957,-0.0039 -0.5786,-0.1204 -0.7918,-0.3253 -0.2258,-0.1853 -0.359,-0.462 -0.362,-0.7545l0 -29.1929c-0.0018,-0.296 -0.1184,-0.5797 -0.3251,-0.7913 -0.1859,-0.225 -0.4627,-0.3553 -0.7546,-0.3558l-3.0677 0c-0.2851,-0.0021 -0.5572,-0.1196 -0.7545,-0.3253 -0.2063,-0.1967 -0.3217,-0.4699 -0.3192,-0.7545l0 -3.3072c0.0123,-0.2706 0.1264,-0.5268 0.3192,-0.7177 0.167,-0.2073 0.41,-0.3397 0.6747,-0.3683l14.1125 0c0.2893,-0.0031 0.5635,0.1343 0.736,0.3683zm21.2107 32.3522l0 0 0 3.3072c-0.0216,0.2796 -0.151,0.5397 -0.3629,0.7238 -0.2043,0.2225 -0.4898,0.3508 -0.7919,0.3558l-13.1847 0c-0.2794,-0.0154 -0.5407,-0.1437 -0.7234,-0.3558 -0.2107,-0.1845 -0.3389,-0.4448 -0.3567,-0.7238l0 -34.727c0.0013,-0.292 0.1309,-0.5686 0.3567,-0.7545 0.1916,-0.1954 0.4493,-0.3113 0.7234,-0.3252l12.4372 0c0.589,0.0159 1.0636,0.4903 1.0788,1.0797l0 3.3071c-0.0139,0.2717 -0.1308,0.5276 -0.3249,0.7179 -0.1853,0.2265 -0.4607,0.3589 -0.7539,0.3618l-6.9028 0c-0.2955,0.004 -0.5786,0.1205 -0.7918,0.3253 -0.222,0.1814 -0.3541,0.4502 -0.3616,0.7361l0 7.3628c0.0189,0.2782 0.1498,0.5369 0.3616,0.7179 0.2031,0.2236 0.4899,0.3544 0.7918,0.3619l4.9089 0c0.292,0.0005 0.5674,0.1309 0.7539,0.356 0.1929,0.1933 0.3085,0.451 0.325,0.7237l0 3.307c-0.0165,0.5896 -0.4899,1.0639 -1.0789,1.0798l-4.9089 0c-0.3019,0.005 -0.5876,0.1339 -0.7918,0.356 -0.2119,0.1809 -0.3428,0.4397 -0.3616,0.7179l0 8.6329c0.005,0.2919 0.1369,0.5676 0.3616,0.7545 0.2133,0.2038 0.4974,0.3179 0.7918,0.3188l7.6198 0c0.5279,-0.0119 0.9087,0.4233 1.1536,1.2824l0.0317 0zm19.4796 -12.584l0 0c1.1473,-0.6147 2.0763,-1.5681 2.6626,-2.7301 0.8946,-2.0107 1.3147,-4.2005 1.2271,-6.3996 0.2044,-3.205 -1.0204,-6.3362 -3.344,-8.5525 -1.9849,-1.6757 -4.5219,-2.5506 -7.1172,-2.4544l-5.4673 0c-0.3021,0.0074 -0.5876,0.1383 -0.7905,0.3623 -0.2108,0.1815 -0.3389,0.4402 -0.3554,0.7179l0 34.7263c0,0.292 0.1308,0.5687 0.3554,0.7552 0.2131,0.2047 0.4962,0.3207 0.7905,0.3251l3.2527 0c0.2957,-0.0044 0.5788,-0.1204 0.7919,-0.3251 0.2246,-0.1865 0.3555,-0.4632 0.3555,-0.7552l0 -12.9334c0.0037,-0.2955 0.1204,-0.5785 0.3249,-0.7912 0.1852,-0.2265 0.462,-0.3594 0.755,-0.3624l0.9315 0c0.2336,0.0179 0.4518,0.1205 0.6142,0.2885 0.2032,0.178 0.3631,0.4006 0.4659,0.6505l3.6816 13.1545c0.0749,0.304 0.2361,0.5792 0.4672,0.7913 0.2308,0.1948 0.5253,0.2973 0.8274,0.2884l3.4482 0c0.2577,-0.0089 0.4937,-0.1412 0.6371,-0.3554 0.1423,-0.2142 0.1725,-0.4838 0.0813,-0.7243l-4.5954 -15.6764zm-2.3681 -5.8225l0 0c-0.349,0.6345 -0.8428,1.1768 -1.4418,1.583 -0.2817,0.1862 -0.5989,0.3097 -0.9328,0.3617 -0.6473,0.226 -1.3274,0.3461 -2.0127,0.356 -0.2438,-0.002 -0.4721,-0.1204 -0.6144,-0.3188 -0.1661,-0.2187 -0.2537,-0.4863 -0.2513,-0.761l0 -9.1297c0.0166,-0.5894 0.4913,-1.0638 1.0802,-1.0797l0.9328 0c1.1801,-0.126 2.3489,0.3317 3.1296,1.227 0.7296,1.3643 1.0432,2.9134 0.9023,4.4542 0.0241,1.1561 -0.2588,2.2978 -0.8237,3.3072l0.0318 0z"/>
 </g>
</svg>
